<?xml version="1.0" encoding="UTF-8"?>
<svg id="Calque_3" data-name="Calque 3" xmlns="http://www.w3.org/2000/svg" viewBox="0 0 500 186.82">
  <defs>
    <style>
      .cls-1 {
        fill: #141414;
      }
    </style>
  </defs>
  <path class="cls-1" d="M430.08,23.3c37.27-1.12,69.92,99.89,69.92,51.31V11.91C500,5.33,494.67,0,488.09,0h-203.24s45.81,111.26,24.55,134.68C276.11,171.34,217.91,0,217.91,0h-96.98s2.35,45.33-22.08,64.08c-22.21,17.04-53.78,34.62-69.97,11.78C12.97,53.42,44.06,0,44.06,0H11.91C5.33,0,0,5.33,0,11.91v163c0,6.58,5.33,11.91,11.91,11.91h32.15s4.5-33.61,27-51.87c21.64-17.56,52.43-38.98,67.62-15.62,14.03,21.6-17.76,67.49-17.76,67.49h45.09s48,0,48,0c0,0-44.66-73.75-16-113.3,24.44-33.74,82.94,113.3,82.94,113.3h207.13c6.58,0,11.91-5.33,11.91-11.91v-51.72c0-18.01-44.75,31.71-83.81,40.88-40.27,9.46-74.51-4.55-48.77-70.15,18.37-46.82,41.48-69.98,62.66-70.62Z"/>
</svg>